<svg xmlns="http://www.w3.org/2000/svg" width="19" height="19" fill="currentColor" viewBox="0 0 19 19">
  <path fill-rule="evenodd" d="M3.962.289a47.496 47.496 0 0 1 10.46 0c1.899.212 3.43 1.707 3.653 3.613a45.704 45.704 0 0 1 0 10.61c-.223 1.906-1.754 3.4-3.652 3.614a47.505 47.505 0 0 1-10.461 0c-1.899-.213-3.43-1.708-3.653-3.613a45.702 45.702 0 0 1 0-10.611C.532 1.996 2.063.5 3.962.289Zm10.23 2.918a1 1 0 1 0 0 2 1 1 0 0 0 0-2Zm-9.75 6a4.75 4.75 0 1 1 9.5 0 4.75 4.75 0 0 1-9.5 0Z" clip-rule="evenodd"/>
</svg>
