<svg xmlns="http://www.w3.org/2000/svg" width="19" height="20" fill="currentColor" viewBox="0 0 19 20">
  <path d="m11.29.14-.57-.08a9.13 9.13 0 0 0-8.92 4 9.1 9.1 0 0 0-.71 9.66 1.299 1.299 0 0 1 .1 1C.78 16.13.4 17.55 0 19.04l.5-.15c1.35-.36 2.7-.72 4.05-1.05a1.45 1.45 0 0 1 .85.08A9.45 9.45 0 1 0 11.29.14Zm2.52 13.12a2.76 2.76 0 0 1-2.72.56 9.2 9.2 0 0 1-5.13-3.71 8.502 8.502 0 0 1-1.11-2.08 2.49 2.49 0 0 1 .55-2.52 1.23 1.23 0 0 1 1.32-.42c.2.05.34.34.52.56.147.413.317.817.51 1.21a.94.94 0 0 1-.2 1.31c-.45.4-.38.73-.06 1.18a6.7 6.7 0 0 0 2.82 2.32c.32.14.56.17.77-.16.09-.13.21-.24.31-.36.58-.73.4-.72 1.32-.32.293.123.577.267.85.43.27.16.68.33.74.57a1.45 1.45 0 0 1-.49 1.43Z"/>
</svg>
